PathFileType	4	(X/Y/Z)	C:/Users/opensim2020/Desktop/walking_exp_matlab/subject02_walking14_straight_02.trc																																																																																																																									
DataRate	CameraRate	NumFrames	NumMarkers	Units	OrigDataRate	OrigDataStartFrame	OrigNumFrames																																																																																																																					
100	100	6	41	mm	100	885	121																																																																																																																					
Frame#	Time	LFHD			RFHD			LBHD			RBHD			C7			T10			CLAV			STRN			RBAK			LSHO			LUPA			LELB			LFRM			LWRA			LWRB			LFIN			RSHO			RUPA			RELB			RFRM			RWRA			RWRB			RFIN			LASI			RASI			LPSI			RPSI			LTHI			LKNE			LTIB			LANK			LHEE			LTOE			RTHI			RKNE			RTIB			RANK			RHEE			RTOE			*39			*40		
		X1	Y1	Z1	X2	Y2	Z2	X3	Y3	Z3	X4	Y4	Z4	X5	Y5	Z5	X6	Y6	Z6	X7	Y7	Z7	X8	Y8	Z8	X9	Y9	Z9	X10	Y10	Z10	X11	Y11	Z11	X12	Y12	Z12	X13	Y13	Z13	X14	Y14	Z14	X15	Y15	Z15	X16	Y16	Z16	X17	Y17	Z17	X18	Y18	Z18	X19	Y19	Z19	X20	Y20	Z20	X21	Y21	Z21	X22	Y22	Z22	X23	Y23	Z23	X24	Y24	Z24	X25	Y25	Z25	X26	Y26	Z26	X27	Y27	Z27	X28	Y28	Z28	X29	Y29	Z29	X30	Y30	Z30	X31	Y31	Z31	X32	Y32	Z32	X33	Y33	Z33	X34	Y34	Z34	X35	Y35	Z35	X36	Y36	Z36	X37	Y37	Z37	X38	Y38	Z38	X39	Y39	Z39	X40	Y40	Z40	X41	Y41	Z41
																																																																																																																												
76	0.75	357.99902	1731.30884	1023.23083	357.50748	1717.13794	1166.52747	222.40326	1667.01416	1018.32672	209.1476	1652.11047	1160.36328	157.76392	1525.3739	1089.38232	116.80231	1244.73962	1109.7749	300.59344	1461.44836	1080.88184	361.05197	1294.30212	1096.34045	104.34435	1347.8739	1159.32849	225.99495	1496.4054	912.00806	226.58607	1299.92529	825.25189	248.92198	1158.73181	802.77283	327.87045	1047.43958	806.67474	439.12375	980.03107	856.80994	402.3501	951.40643	822.42731	456.34918	913.11902	825.83289	228.16833	1499.74146	1276.07153	189.03114	1315.03552	1368.03418	192.83438	1170.17358	1392.23535	210.59273	1052.87659	1417.28174	243.42033	920.27765	1404.13831	199.20964	924.5932	1439.06702	228.23343	857.35278	1442.98523	342.55661	983.90735	980.31665	359.00961	985.24677	1236.31079	141.10565	1030.66443	1075.58728	142.53137	1037.67432	1191.17456	322.79565	670.18848	931.86639	330.7193	487.97354	958.82727	192.84288	369.59485	987.19482	77.05644	182.64861	1030.98889	47.46801	173.2908	1092.78784	171.01373	68.47491	986.83215	302.65146	673.98798	1309.9563	306.6705	464.01297	1264.63037	255.83739	281.42847	1273.09509	222.51585	92.03346	1233.84436	181.13217	39.48201	1180.96008	372.87958	36.90015	1241.651	262.02618	1806.72791	1111.23022	NaN	NaN	NaN
77	0.76	371.20471	1731.94714	1022.57819	371.20233	1718.21936	1165.58875	235.44237	1667.90515	1018.02124	222.73471	1653.31506	1160.13196	170.98457	1526.57263	1089.87134	129.77786	1246.05872	1111.20789	313.59714	1462.38318	1080.84631	373.98529	1295.25293	1096.49512	117.75963	1349.48962	1160.89661	238.15009	1496.96155	912.21179	237.52492	1300.01074	826.22278	256.59381	1158.78186	803.84875	330.27957	1044.35669	806.30219	438.4476	970.77747	855.1615	400.89926	944.70355	820.62506	452.89954	903.51709	823.52112	242.41985	1501.66223	1276.05603	205.69276	1317.26099	1369.72119	211.1763	1172.17896	1394.28088	231.6067	1055.1925	1419.10974	267.87866	923.67529	1405.72778	223.73085	926.66138	1440.88965	255.00151	860.59338	1444.88074	356.14905	986.47687	982.02081	370.77304	986.27417	1237.6958	153.83713	1031.99329	1076.09375	154.97443	1038.73853	1191.72534	341.04184	673.13513	932.13647	353.30344	489.87433	960.31146	220.15683	364.86942	988.81641	113.30438	173.11584	1034.65527	84.47885	162.28481	1096.25916	213.42	64.63921	990.55219	308.01828	673.7475	1309.67847	309.40277	463.74646	1264.87976	256.79556	281.591	1273.05957	222.67549	92.36845	1233.65845	181.3105	39.72221	1180.67957	372.99268	36.65677	1241.6842	275.36557	1807.54626	1110.16101	NaN	NaN	NaN
78	0.77	383.91852	1732.78149	1021.16394	384.74847	1719.20654	1164.39551	248.70306	1668.51172	1017.86957	236.25514	1654.25964	1159.97412	184.14255	1527.20325	1089.84814	142.72658	1247.1167	1112.59314	327.14349	1463.30994	1080.44421	387.03796	1295.98535	1096.64099	131.3241	1350.55298	1161.64954	250.32275	1497.19299	912.45679	247.83325	1300.06873	826.86096	264.10809	1158.60864	804.89856	332.58456	1040.71021	805.91748	437.54147	961.7384	853.19415	398.1824	937.7038	818.85046	447.64539	893.82135	821.08948	256.75009	1503.12036	1275.92371	222.27373	1319.14819	1371.01331	229.44229	1174.10205	1396.68628	253.02333	1057.505	1421.29456	292.51886	926.82654	1407.16394	248.50964	928.71216	1442.62305	281.97131	863.8595	1446.58801	369.63248	988.50879	984.16376	382.4985	986.93365	1239.24146	166.4837	1033.0918	1076.31348	167.39339	1039.53735	1191.9585	359.09555	675.88837	932.20801	375.4978	491.27383	961.65631	247.78131	359.27097	990.16956	150.75337	162.89871	1037.70142	122.25192	150.63168	1099.67456	256.92252	60.86266	993.70398	314.28757	673.50549	1309.7334	312.24377	463.3866	1264.89136	258.24338	281.7283	1272.98523	223.2177	92.48317	1233.57715	181.52441	39.9328	1180.31177	372.93948	36.61003	1241.75122	288.9202	1808.67773	1109.62488	NaN	NaN	NaN
79	0.78	397.26373	1732.81738	1020.17725	398.49152	1719.75989	1163.42297	261.41876	1668.90576	1017.21124	249.77812	1654.74658	1159.59131	197.61649	1527.86194	1090.41565	155.71582	1247.85742	1113.84045	340.46616	1463.81702	1080.16077	400.0047	1296.479	1096.96777	144.49675	1351.86938	1163.65637	262.60901	1496.96204	912.49408	257.75558	1299.76404	827.31476	271.65915	1158.16101	805.90619	335.1232	1037.35022	805.52808	435.12509	952.25055	851.54083	395.76059	931.32007	817.05939	442.45374	884.45471	818.75165	270.90997	1504.44702	1275.92432	238.86223	1320.87231	1372.50574	247.79236	1175.70972	1399.07849	274.32162	1059.5376	1422.97498	317.4111	930.45898	1408.6283	273.75583	930.55847	1444.0752	309.09091	867.07697	1448.13	383.29141	990.13776	986.49994	394.15155	987.25946	1240.92847	179.09286	1033.94592	1076.23804	179.73842	1040.08484	1191.96082	377.16241	678.32813	932.40912	397.15826	492.3653	962.79834	275.5668	353.05072	991.3504	189.07857	152.34892	1040.43237	161.21666	138.5157	1102.57471	301.19785	57.36518	996.25104	319.96448	673.51923	1309.12256	315.31726	463.10544	1264.88281	260.02264	281.81503	1272.78992	223.34474	92.89166	1233.20898	181.65208	40.27211	1179.99719	372.96576	36.75163	1241.89465	302.20569	1809.09778	1108.63062	NaN	NaN	NaN
80	0.79	410.16837	1733.09827	1018.78882	412.00253	1719.95117	1161.78735	274.32925	1668.81274	1016.8299	263.50641	1655.35791	1159.15869	210.8869	1528.00269	1090.50378	168.61154	1248.28186	1115.03101	352.58258	1463.76782	1080.2074	412.97192	1296.59253	1097.2428	157.86801	1352.66943	1164.93555	274.68408	1496.54077	912.40137	267.61685	1299.13013	827.75562	279.23285	1157.35803	806.88513	336.37979	1034.22021	804.96118	433.14886	943.27045	849.29004	392.34891	924.80292	815.0174	436.73914	875.43359	816.11542	285.02539	1505.37085	1275.65686	255.36823	1322.28979	1373.87073	266.1778	1177.30237	1401.83752	295.91104	1061.49438	1424.84155	342.42975	933.80865	1409.87207	298.93359	932.48328	1445.54407	336.35416	870.2829	1449.49097	397.06613	991.12689	988.86835	405.70984	987.17639	1242.57788	191.65199	1034.50122	1075.85913	192.0871	1040.38	1191.66296	394.25513	680.47601	932.40729	417.95959	493.14725	964.08856	303.9155	346.3392	992.43445	228.33553	141.61491	1042.49805	201.64494	125.78695	1104.5658	346.20001	54.14113	998.16119	326.52936	673.33722	1308.80603	318.47284	462.7529	1264.73914	261.96371	281.95999	1272.46899	223.71428	93.18508	1232.92004	182.10565	40.43554	1179.54651	373.04639	36.68712	1241.99512	315.73773	1809.33044	1107.54187	NaN	NaN	NaN
81	0.8	423.89819	1732.54028	1018.09875	425.63571	1720.08459	1160.50854	287.43115	1668.56531	1016.20673	277.05768	1655.50757	1158.72119	224.07564	1528.08838	1090.63037	181.61528	1248.43738	1116.00659	365.33978	1463.41455	1080.08264	426.26181	1296.58716	1097.53857	171.4931	1352.76855	1165.41907	287.27887	1495.61694	912.34583	278.08539	1298.3219	828.19385	287.03937	1156.33081	807.89502	338.74808	1030.72253	804.23029	430.74173	934.50067	846.98615	388.47601	918.43823	812.9516	430.28735	866.77612	813.32672	298.96057	1506.05164	1275.38733	271.85611	1323.4469	1375.12024	284.65112	1178.27808	1403.86414	317.6973	1063.32629	1426.8053	367.38718	937.07648	1410.9397	323.96002	934.36407	1446.88782	363.67191	873.49249	1450.60608	410.9707	991.74139	991.24036	417.14563	986.67059	1244.1615	204.30443	1034.83777	1075.28088	204.37891	1040.4314	1191.06702	411.29828	682.07324	932.63782	438.10342	493.60782	965.58038	332.03644	339.61172	993.35364	268.87357	130.88432	1043.78552	242.86888	113.38274	1106.16626	391.71649	51.48889	999.4281	333.6499	672.98889	1308.84839	321.64838	462.36731	1264.43372	263.7706	282.13831	1272.12158	224.29587	93.35705	1232.67065	182.11462	41.04322	1179.30103	372.97397	36.69326	1242.18066	329.46503	1809.43176	1106.51416	NaN	NaN	NaN
